<svg aria-hidden="true" style="position:absolute;width:0;height:0" xmlns="http://www.w3.org/2000/svg" overflow="hidden">
  <defs>
    <symbol id="client-1" viewBox="0 0 60 32">
      <path d="M24.533 7.111l2.598 2.46h7.248v6.862l2.598 2.46V7.112H24.533z"/>
      <path d="M22.4 9.467v11.444h12.089v-4.549l-7.281-6.893-4.808-.003zm9.786 9.771h-7.873v-7.697h.556v7.176h7.317v.521zm-6.305 3.796l.291-.599h.243l-.424.799v.465h-.22v-.465l-.424-.798h.244l.291.599zm1.248.371h-.489l-.102.294h-.228l.477-1.264h.197l.478 1.264h-.229l-.103-.294zm-.428-.177h.366l-.183-.524-.183.524zm1.294.13c0-.058.016-.112.048-.16a.778.778 0 01.188-.175.795.795 0 01-.101-.153l-.002-.005a.32.32 0 01-.029-.126c0-.099.03-.177.09-.235s.141-.087.243-.087c.092 0 .167.027.226.082s.089.121.089.201v.002a.275.275 0 01-.041.145l.001-.001a.477.477 0 01-.13.131l-.002.001-.086.063.244.288a.504.504 0 00.053-.231h.183a.634.634 0 01-.11.383l.186.22H28.8l-.071-.084a.517.517 0 01-.31.102h-.014.001a.438.438 0 01-.3-.099.331.331 0 01-.112-.249v-.012.001zm.418.19a.321.321 0 00.199-.071l-.276-.326-.027.019c-.069.053-.104.113-.104.181 0 .058.019.106.057.142a.207.207 0 00.141.055h.011zm-.116-.814c0 .049.03.11.09.183l.096-.066.027-.022a.157.157 0 00.054-.118v-.006a.11.11 0 00-.037-.083.13.13 0 00-.09-.036h-.01a.123.123 0 00-.093.042.154.154 0 00-.037.1v.006zm2.296.554c-.013.135-.063.24-.149.316s-.202.113-.346.113a.505.505 0 01-.267-.071.481.481 0 01-.176-.201l-.001-.003a.726.726 0 01-.065-.302v-.123c0-.119.021-.224.063-.315a.478.478 0 01.455-.284c.139 0 .252.038.337.114s.134.183.148.321h-.219c-.011-.091-.037-.156-.08-.196s-.105-.061-.187-.061c-.095 0-.169.035-.22.105s-.077.172-.078.306v.112c0 .137.025.241.073.313s.121.108.215.108c.086 0 .151-.02.195-.058s.071-.103.082-.193h.219zm1.206-.188c0 .124-.021.233-.064.326s-.105.165-.184.215a.503.503 0 01-.274.075.508.508 0 01-.274-.075.503.503 0 01-.185-.211l-.001-.003a.739.739 0 01-.066-.308v-.012.001-.071c0-.123.021-.232.065-.326s.106-.166.185-.216c.08-.05.171-.076.274-.076s.194.025.273.075c.08.049.141.121.185.213s.065.201.066.324v.07zm-.22-.066a.553.553 0 00-.08-.322.258.258 0 00-.213-.112h-.012.001-.009a.26.26 0 00-.213.111l-.001.001a.55.55 0 00-.082.315v.073c0 .139.027.246.081.322s.129.114.225.114c.097 0 .172-.037.224-.111s.079-.182.079-.325v-.066z"/>
    </symbol>
    <symbol id="client-2" viewBox="0 0 60 32">
      <path d="M29.147 7.799h.049c.09 0 .187.009.283.017.424.03.845.093 1.259.19V6.988a7.522 7.522 0 00-1.3-.207 8.957 8.957 0 00-.513-.025h-.164c-.88.004-1.756.116-2.608.336a10.55 10.55 0 00-2.768 1.126v10.097a10.96 10.96 0 012.56-1.011l.078-.017a11.144 11.144 0 012.184-.339l.03-.001h.029c.125-.006.25-.01.379-.011v-1.035a12.208 12.208 0 00-2.963.402l.085-.019c-.348.091-.684.188-1 .297l-.36.122V8.83l.154-.074a9.86 9.86 0 013.712-.953l.027-.001.016-.001.017.001h-.001c.143-.007.287-.011.428-.011h.162c.075.002.149.004.224.008z"/>
      <path d="M31.684 8.865h-.009a9.214 9.214 0 01-1.551-.13l.054.008a7.51 7.51 0 01-.47-.095v9.981c.647.16 1.312.238 1.979.233a10.672 10.672 0 002.683-.352l-.074.017a10.547 10.547 0 002.818-1.153l-.049.027V7.485c-.758.421-1.635.773-2.559 1.011l-.078.017c-.896.23-1.817.348-2.742.352zm3.991.172l.36-.121v7.875l-.154.074a9.429 9.429 0 01-1.771.646l-.068.015a9.59 9.59 0 01-2.354.305c-.238 0-.473-.01-.701-.03l-.246-.022V9.68l.287.019c.19.013.411.02.634.02h.026-.001a12.206 12.206 0 002.989-.383c.336-.089.669-.188 1-.299zM24.084 21.764a.53.53 0 00-.382-.162h-.02.001-.008a.593.593 0 00-.227.045l.004-.001a.524.524 0 00-.295.296l-.001.004a.588.588 0 00-.041.223v1.349a.63.63 0 00.053.277.482.482 0 00.32.277.77.77 0 00.202.028.57.57 0 00.559-.568v-.151h-.353v.128a.33.33 0 01-.021.114l.001-.002a.212.212 0 01-.051.076.25.25 0 01-.147.052l-.021.001a.178.178 0 01-.144-.073.313.313 0 01-.047-.167v-.014.001-1.258a.44.44 0 01.043-.202.181.181 0 01.174-.082h-.001.007c.062 0 .116.03.15.076a.288.288 0 01.058.173v.125h.349v-.144a.625.625 0 00-.045-.234l.002.004a.565.565 0 00-.118-.19zm2.095-.015a.628.628 0 00-.401-.149.6.6 0 00-.21.038.56.56 0 00-.322.296l-.001.003a.63.63 0 00-.052.261v1.294a.621.621 0 00.052.265.527.527 0 00.137.181.55.55 0 00.186.114.609.609 0 00.612-.114l-.001.001a.555.555 0 00.184-.446v-1.306a.626.626 0 00-.053-.253l.002.004a.586.586 0 00-.133-.189zm-.164 1.744l.001.02a.23.23 0 01-.071.167.256.256 0 01-.332-.001.23.23 0 01-.071-.167l.001-.022v.001-1.294l-.001-.02a.23.23 0 01.071-.167.257.257 0 01.332 0 .23.23 0 01.071.167l-.001.021v-.001 1.294zm2.915.578v-2.45h-.339l-.445 1.297h-.006l-.449-1.296h-.335v2.449h.35v-1.49h.006l.343 1.053h.175l.345-1.053h.006v1.49h.35zm1.988-2.278a.488.488 0 00-.198-.134.764.764 0 00-.24-.038h-.533v2.45h.349v-.957h.18a.638.638 0 00.315-.067.511.511 0 00.19-.185l.001-.002a.586.586 0 00.08-.213 1.7 1.7 0 00.019-.256v-.023.001a1.377 1.377 0 00-.034-.35.52.52 0 00-.129-.225zm-.18.747a.308.308 0 01-.033.129l.001-.002a.193.193 0 01-.089.085h-.001a.348.348 0 01-.147.031h-.019.001-.159v-.833h.197a.33.33 0 01.143.032l-.002-.001a.2.2 0 01.081.089v.001a.38.38 0 01.031.137v.163c0 .057.004.116 0 .168h-.004zm1.834-.919h-.286l-.54 2.45h.349l.102-.526h.476l.103.526h.349l-.553-2.45zm-.322 1.59l.172-.888h.006l.171.888h-.349zm2.577-.114h-.006l-.527-1.476h-.336v2.45h.349v-1.473h.007l.533 1.473h.329v-2.449h-.349v1.476zm2.132-1.476l-.281.974h-.007l-.281-.974h-.37l.479 1.414v1.035h.349v-1.035l.479-1.414h-.369zm-13.848 3.141h.168v.472h.114v-.472h.167v-.097h-.449v.097zm1.414-.096l-.22.569h.121l.047-.129h.227l.048.129h.124l-.226-.569h-.121zm-.018.343l.077-.211.077.211h-.155zm1.416.016h.132v.073a.214.214 0 01-.135.048h-.008a.145.145 0 01-.113-.054.24.24 0 01-.042-.136v-.013.001c0-.127.055-.19.164-.19l.012-.001a.12.12 0 01.116.09v.001l.112-.022c-.024-.111-.104-.167-.241-.167h-.008a.289.289 0 00-.191.073.276.276 0 00-.082.219v-.001.013c0 .076.028.146.074.201.05.052.12.084.198.084l.019-.001h-.001.01a.339.339 0 00.232-.091v-.224h-.246v.096zm1.427-.359h-.115v.569h.398v-.097h-.283v-.472zm1.207 0h-.115v.569h.115v-.569zm1.18.379l-.233-.38h-.111v.569h.107v-.372l.229.372h.114v-.569h-.106v.38zm1.067-.061h.283v-.097h-.283v-.124h.305v-.097h-.42v.569h.432v-.097h-.316v-.154zm2.587-.094h-.224v-.224h-.114v.569h.114v-.249h.224v.249h.114v-.569h-.114v.224zm1.073.094h.284v-.097h-.284v-.124h.306v-.097h-.42v.569h.431v-.097h-.316v-.154zm1.455 0c.099-.016.149-.068.149-.158l.001-.016a.136.136 0 00-.056-.11.312.312 0 00-.144-.034l-.023.001h.001-.241v.569h.114v-.238h.031c.022 0 .044.005.063.013h-.001c.017.01.031.025.041.042l.124.181h.137l-.069-.111a.406.406 0 00-.124-.136l-.001-.001zm-.115-.079h-.084v-.143h.09l.024-.001c.033 0 .064.005.094.015l-.002-.001a.077.077 0 01.025.056.075.075 0 01-.031.06.316.316 0 01-.095.014l-.022-.001h.001zm1.213.079h.283v-.097h-.283v-.124h.306v-.097h-.421v.569h.432v-.097h-.316v-.154z"/>
    </symbol>
    <symbol id="client-3" viewBox="0 0 60 32">
      <path d="M25.367 23.394a.04.04 0 01.028.012l.073.077a.588.588 0 01-.206.145.727.727 0 01-.292.052h-.015a.71.71 0 01-.265-.051l.005.002a.598.598 0 01-.339-.346l-.001-.004a.764.764 0 01-.046-.263v-.02c0-.095.018-.185.052-.267l-.002.005a.628.628 0 01.361-.351.797.797 0 01.282-.049.713.713 0 01.263.044c.072.03.139.071.196.123l-.061.082a.054.054 0 01-.015.015.041.041 0 01-.022.007h-.003a.062.062 0 01-.027-.009l-.033-.022-.046-.028a.489.489 0 00-.141-.048h-.003a.62.62 0 00-.1-.009h-.016a.526.526 0 00-.199.038l.004-.001a.455.455 0 00-.262.267.596.596 0 00-.038.216.614.614 0 00.038.22c.022.06.057.116.101.163a.414.414 0 00.152.101c.06.024.124.036.188.035a.842.842 0 00.112-.007.42.42 0 00.242-.112.052.052 0 01.034-.014zm2.113-.386a.739.739 0 01-.049.271.624.624 0 01-.35.347l-.004.001a.799.799 0 01-.562-.002l.006.002a.617.617 0 01-.352-.347l-.001-.004a.764.764 0 01.002-.548l-.002.005a.623.623 0 01.139-.213.633.633 0 01.211-.132l.004-.001a.799.799 0 01.562.002l-.006-.002a.617.617 0 01.354.349.73.73 0 01.05.273zm-.192 0v-.011a.63.63 0 00-.036-.21l.001.004a.434.434 0 00-.25-.265L27 22.525a.571.571 0 00-.408.001l.004-.001a.429.429 0 00-.252.263l-.001.003a.706.706 0 000 .436.43.43 0 00.25.264l.003.001a.596.596 0 00.404 0 .415.415 0 00.253-.265.623.623 0 00.035-.218zm1.633.229l.02.049a2.405 2.405 0 01.046-.099l-.001.002.467-.809c.009-.014.018-.023.027-.025s.02-.004.032-.004h.145v1.316h-.164v-1.008l-.001-.023.001-.024v.001l-.47.821a.074.074 0 01-.066.041h-.027a.078.078 0 01-.068-.04l-.484-.826v1.057h-.158v-1.314h.145c.011 0 .022.002.032.005h-.001a.05.05 0 01.025.025l.477.81a.212.212 0 01.023.045l.001.002zm1.759-.065v.493h-.183v-1.314h.424c.075 0 .148.01.218.03l-.006-.001a.44.44 0 01.161.082.33.33 0 01.091.129.443.443 0 01-.003.336.367.367 0 01-.098.131h-.001a.463.463 0 01-.159.086l-.003.001a.714.714 0 01-.22.031l-.221-.004zm0-.142h.221a.456.456 0 00.142-.02.3.3 0 00.102-.057.228.228 0 00.062-.085l.001-.002a.27.27 0 00.022-.108v-.017a.248.248 0 00-.019-.095l.001.002a.255.255 0 00-.064-.09.363.363 0 00-.218-.072l-.029.001h.001-.221v.542zm2.458.636h-.147a.071.071 0 01-.038-.012.076.076 0 01-.023-.03l-.124-.318h-.625l-.129.318a.066.066 0 01-.023.029.065.065 0 01-.039.013h-.146l.549-1.317h.19l.556 1.317zm-.905-.489h.516l-.218-.536a.8.8 0 01-.04-.117l-.001-.006-.021.069a.452.452 0 01-.022.06l.002-.004-.216.535zm1.695-.821a.081.081 0 01.028.024l.8.992V22.35h.164v1.317h-.093a.078.078 0 01-.035-.008h.001a.113.113 0 01-.029-.024l-.799-.991a.338.338 0 010 .045v.979h-.164v-1.317h.097c.011 0 .022.002.033.006zm2.34.786v.523h-.183v-.523l-.506-.793h.168c.013 0 .026.004.036.012.01.008.018.018.025.029v.001l.316.511a.765.765 0 01.056.116l.024-.057a.425.425 0 01.031-.06l.312-.515a.131.131 0 01.024-.028.057.057 0 01.036-.013h.169l-.507.796zm-7.437-3.002c.08.01.16.018.242.025 1.234-.526 2.278-1.387 3.001-2.475s1.094-2.355 1.066-3.643l-1.36-1.296c.09.427.142.918.142 1.421a7.17 7.17 0 01-.532 2.72l.017-.048a7.573 7.573 0 01-2.575 3.296z"/>
      <path d="M28.345 20.08l.037.007a7.32 7.32 0 002.719-3.394c.3-.747.473-1.614.473-2.521 0-.619-.081-1.22-.233-1.791l.011.049-1.937-1.845a8.455 8.455 0 01.962 3.944c0 .335-.019.666-.057.991l.004-.04a8.707 8.707 0 01-1.979 4.6zm6.569-4.512a6.683 6.683 0 01-2.279 3.639 7.265 7.265 0 01-1.047.722l-.036.019a6.479 6.479 0 002.525-1.362l-.008.006a6.096 6.096 0 001.615-2.235l.015-.04-.786-.748z"/>
      <path d="M34.606 15.36l-1.119-1.066a6.534 6.534 0 01-1.065 3.463l.015-.025a7.002 7.002 0 01-2.737 2.454h.006c.251 0 .501-.014.751-.043a6.916 6.916 0 002.699-1.887l.007-.008a6.403 6.403 0 001.436-2.847l.008-.043zm-6.099-5.554l-1.334-1.273c-1.193.439-2.219 1.211-2.943 2.215s-1.115 2.193-1.118 3.411c.005 1.347.48 2.652 1.351 3.712s2.089 1.812 3.46 2.139c1.224-1.42 1.94-3.176 2.046-5.011s-.407-3.654-1.461-5.193zm9.182 5.358c-.005-1.597-.673-3.128-1.858-4.257s-2.792-1.766-4.468-1.771a6.51 6.51 0 00-2.265.402l8.17 7.783a5.623 5.623 0 00.422-2.157z"/>
    </symbol>
    <symbol id="client-4" viewBox="0 0 60 32">
      <path d="M20.41 13.095h-.001c-.804 0-1.456.636-1.456 1.419v.001c0 .784.652 1.419 1.456 1.419h.001c.804 0 1.456-.636 1.456-1.419v-.001c0-.784-.652-1.419-1.456-1.419zm10.75-.454a4.066 4.066 0 00-1.237-2.902 4.277 4.277 0 00-5.956-.001 4.063 4.063 0 00-1.237 2.903v6.004s8.43-.915 8.431-6.003v-.001zM16 20.616c.004.793.333 1.507.86 2.019l.001.001a2.975 2.975 0 004.144 0l-.001.001a2.823 2.823 0 00.861-2.018V16.44s-5.866.638-5.866 4.177zm2.933.748h-.002a.775.775 0 01-.428-.128l.003.002a.759.759 0 01-.281-.331l-.002-.005a.716.716 0 01-.042-.437l-.001.005a.745.745 0 01.21-.383.776.776 0 01.388-.204l.005-.001a.784.784 0 01.789.319.729.729 0 01.07.708l.002-.005a.75.75 0 01-.415.407.774.774 0 01-.294.057v-.003zm5.988-.464h-.6v.62h-.313v-1.516h.988v.253h-.675v.391h.6v.252zm1.502-.104c0 .149-.026.28-.079.393s-.128.199-.227.26a.615.615 0 01-.326.092h-.012.001-.019a.602.602 0 01-.545-.345l-.002-.004a.882.882 0 01-.083-.375v-.013.001-.075a.92.92 0 01.08-.394.602.602 0 01.566-.353.607.607 0 01.564.353.902.902 0 01.081.393v.068zm-.317-.069c0-.159-.029-.28-.086-.363a.28.28 0 00-.232-.124h-.013.001-.012a.279.279 0 00-.23.122l-.001.001c-.057.081-.086.201-.086.358v.074c0 .155.028.275.085.361s.139.128.246.128h.012a.276.276 0 00.229-.122l.001-.001c.056-.083.085-.203.085-.361v-.074zm1.33.395v-.009a.158.158 0 00-.062-.126.815.815 0 00-.225-.1 1.586 1.586 0 01-.266-.108l.009.004c-.172-.093-.259-.218-.259-.376 0-.082.023-.155.069-.219s.113-.115.199-.151c.087-.036.184-.054.292-.054s.205.02.289.059a.436.436 0 01.268.41h-.313a.203.203 0 00-.065-.161.269.269 0 00-.185-.059.283.283 0 00-.178.049.152.152 0 00-.064.124v.004c0 .049.025.09.074.124.05.033.123.065.22.094.178.053.307.12.388.199s.122.178.122.295c0 .132-.05.235-.149.309s-.233.112-.401.112a.77.77 0 01-.319-.064.523.523 0 01-.219-.174l-.001-.002a.448.448 0 01-.075-.249v-.009h.314c0 .167.1.251.3.251a.293.293 0 00.174-.045.147.147 0 00.062-.121v-.007zm1.668-.866h-.464v1.263h-.313v-1.263h-.458v-.253h1.236v.253zm1.092.607h-.6v.406h.704v.251h-1.017v-1.516h1.015v.253h-.702v.361h.6v.245zm.849.102h-.249v.555h-.313v-1.516h.564c.179 0 .317.04.415.12s.146.193.146.338c0 .103-.023.19-.068.26a.455.455 0 01-.2.163l-.003.001.328.62v.015h-.336l-.284-.555zm-.249-.254h.252c.078 0 .139-.02.182-.059a.215.215 0 00.065-.154v-.012.001c0-.071-.021-.128-.061-.169s-.102-.061-.186-.061h-.251v.455zm1.893.274v.534h-.313v-1.516h.592c.114 0 .214.021.3.063a.469.469 0 01.27.44c0 .149-.051.266-.153.352s-.242.128-.422.128h-.274zm0-.253h.279c.083 0 .146-.02.188-.059a.21.21 0 00.066-.166v-.011a.252.252 0 00-.066-.17.247.247 0 00-.181-.071h-.286v.476zm1.977.131h-.6v.406h.704v.251h-1.017v-1.516h1.015v.253h-.702v.361h.6v.245zm1.45-.607h-.464v1.263h-.313v-1.263h-.458v-.253h1.235v.253zm1.092.607h-.6v.406h.704v.251h-1.017v-1.516h1.015v.253h-.702v.361h.6v.245zm.849.102h-.249v.555h-.313v-1.516h.564c.179 0 .318.04.415.12s.146.193.146.338c0 .103-.022.19-.068.26a.455.455 0 01-.2.163l-.003.001.328.62v.015h-.336l-.284-.555zm-.249-.254h.252a.26.26 0 00.182-.059.215.215 0 00.065-.154v-.012.001c0-.071-.021-.128-.062-.169s-.102-.061-.187-.061h-.251v.455zm1.836.411v-.009a.161.161 0 00-.062-.126.815.815 0 00-.225-.1 1.633 1.633 0 01-.267-.108l.009.004c-.172-.093-.258-.218-.258-.376 0-.082.023-.155.069-.219s.113-.115.199-.151c.087-.036.184-.054.292-.054s.205.02.289.059a.436.436 0 01.268.41h-.313a.203.203 0 00-.065-.161.269.269 0 00-.185-.059.283.283 0 00-.178.049.152.152 0 00-.064.123v.004c0 .049.025.09.074.124.05.033.123.065.22.094.178.053.307.12.388.199s.122.178.122.295c0 .132-.05.235-.149.309s-.233.112-.401.112h-.01a.757.757 0 01-.313-.066l.005.002a.517.517 0 01-.219-.174l-.001-.002a.446.446 0 01-.075-.249v-.009h.313c0 .167.1.251.3.251a.295.295 0 00.174-.045.148.148 0 00.063-.121v-.006z"/>
    </symbol>
    <symbol id="client-5" viewBox="0 0 60 32">
      <path d="M21.507 21.788a.557.557 0 01.123.359l.001.028a.571.571 0 01-.191.426h-.001a.825.825 0 01-.554.166h-.974V20.49h.954a.805.805 0 01.531.153l-.002-.002a.52.52 0 01.186.398l-.001.029v-.001a.528.528 0 01-.111.348.52.52 0 01-.291.178.55.55 0 01.329.195zm-1.143-.344h.408a.383.383 0 00.259-.076.272.272 0 00.088-.2l-.001-.024v.001l.001-.019a.278.278 0 00-.087-.203.39.39 0 00-.235-.078l-.033.001h.001-.401v.597zm.707.873a.28.28 0 00.097-.213l-.001-.019v-.016a.285.285 0 00-.099-.217.415.415 0 00-.25-.083l-.028.001h.001-.427v.626h.433a.428.428 0 00.274-.079zm2.386.45l-.531-.89h-.199v.89h-.457V20.49h.864l.059-.002c.207 0 .397.074.544.197l-.001-.001a.727.727 0 01.062.944l.001-.002a.699.699 0 01-.412.231l.565.91h-.496zm-.73-1.201h.373c.26 0 .389-.115.389-.345l.001-.019a.34.34 0 00-.096-.237.405.405 0 00-.259-.094l-.036.002h.002-.378l.005.693zm3.225.742h-.91l-.161.459h-.479l.836-2.252h.517l.832 2.252h-.479l-.157-.458zm-.122-.345l-.332-.961-.332.961h.665zm3.246.804h-.454l-1.016-1.548v1.548h-.452V20.49h.452l1.016 1.557V20.49h.453v2.277zm2.586-.546a.985.985 0 01-.405.399l-.005.003c-.197.1-.416.149-.637.143h-.807v-2.277h.842c.219 0 .427.052.61.144l-.008-.004a.958.958 0 01.41.397 1.327 1.327 0 01-.003 1.202l.003-.008zm-.519-.054a.834.834 0 00-.001-1.088l.001.001a.783.783 0 00-.569-.193h.002-.315v1.474h.315a.781.781 0 00.568-.194l-.001.001zM26.236 7.822s5.85 2.217 5.726 5.426v5.427s-5.845-2.219-5.723-5.427l-.003-5.426zm10.937 9.582a7.908 7.908 0 013.681-1.372l.035-.003V14.33a7.684 7.684 0 00-3.698 3.043l-.019.031z"/>
      <path d="M36.509 17.916a8.009 8.009 0 014.325-3.924l.055-.018V9.079s-8.331 3.158-8.154 7.727v7.727s.371-.141.955-.406a8.033 8.033 0 012.808-6.202l.011-.009z"/>
      <path d="M35.717 20.787a8.016 8.016 0 01.291-1.582 7.446 7.446 0 00-1.764 4.659v.008a23.09 23.09 0 001.716-.909l-.114.062a7.775 7.775 0 01-.157-1.577c0-.232.01-.462.029-.69l-.002.03zm.331.027a7.76 7.76 0 00.11 2.074l-.008-.048c2.276-1.367 4.833-3.48 4.735-6.033v-.223a7.452 7.452 0 00-4.333 2.034l.002-.002a7.448 7.448 0 00-.506 2.171l-.002.027z"/>
    </symbol>
    <symbol id="client-6" viewBox="0 0 60 32">
      <path d="M30.485 15.414a1.152 1.152 0 01-.202-.735v.003-1.061c0-.325.068-.572.202-.741s.366-.253.693-.252c.308 0 .526.072.655.216a.936.936 0 01.194.634v.249h-.55v-.285c0-.076-.006-.15-.017-.222l.001.008a.246.246 0 00-.078-.147.297.297 0 00-.176-.058l-.024.001h.001l-.023-.001a.316.316 0 00-.188.062l.001-.001a.287.287 0 00-.091.16v.002a1.35 1.35 0 00-.022.262v1.287a.71.71 0 00.072.365l-.002-.004a.266.266 0 00.109.087l.002.001a.276.276 0 00.143.021h-.001a.277.277 0 00.196-.059h-.001a.264.264 0 00.082-.155v-.001c.013-.085.019-.172.017-.258v-.261h.55v.238l.002.065c0 .226-.072.435-.195.605l.002-.003c-.126.158-.342.236-.659.236s-.556-.084-.692-.259zm2.292.011c-.139-.165-.209-.406-.209-.724v-1.116c0-.315.07-.553.209-.715s.371-.242.697-.242c.324 0 .555.081.694.242s.21.4.21.715v1.116c0 .315-.071.556-.212.723s-.372.249-.692.249c-.32 0-.557-.084-.697-.248zm.954-.267a.663.663 0 00.066-.33v-1.366l.001-.037a.649.649 0 00-.068-.291l.002.004a.253.253 0 00-.111-.088l-.002-.001a.269.269 0 00-.146-.018h.001c-.011-.002-.024-.002-.037-.002a.288.288 0 00-.11.022l.002-.001a.264.264 0 00-.112.088l-.001.001a.639.639 0 00-.066.324v1.372a.661.661 0 00.066.33c.032.034.07.062.114.081l.002.001a.36.36 0 00.286-.001l-.002.001a.344.344 0 00.116-.082v-.006zm1.309-2.497h.593l.446 2.059.456-2.059h.577l.058 2.971h-.426l-.045-2.065-.44 2.065h-.342l-.456-2.072-.042 2.072h-.431l.053-2.971zm2.793 0h.923c.532 0 .797.281.797.844 0 .539-.28.807-.84.807h-.314v1.32h-.57l.004-2.971zm.789 1.27a.41.41 0 00.313-.094.518.518 0 00.082-.335l.001-.032c0-.084-.01-.166-.029-.245l.001.007a.228.228 0 00-.042-.082.251.251 0 00-.071-.059l-.001-.001a.54.54 0 00-.223-.048l-.032.001h.001-.221v.887h.221zm1.753-1.27h.612l.628 2.971h-.531l-.124-.685h-.546l-.128.685h-.539l.628-2.971zm.523 1.942l-.213-1.247-.213 1.247h.426zm1.224-1.942h.399l.763 1.695v-1.695h.473v2.971h-.379l-.768-1.769v1.769h-.489l.001-2.971zm2.743 1.839l-.635-1.834h.534l.388 1.178.363-1.178h.523l-.627 1.834v1.133h-.547V14.5zm-13.5 2.431v.155H30.9v1.207h-.195v-1.207h-.467v-.155h1.127zm1.458 1.363h-.154a.062.062 0 01-.038-.013.07.07 0 01-.025-.031l-.135-.324h-.645l-.135.324a.102.102 0 01-.02.037.065.065 0 01-.039.013h-.154l.57-1.362h.198l.577 1.357zm-.944-.506h.538l-.228-.555a1.064 1.064 0 01-.041-.121l-.002-.007-.021.072-.021.057-.226.554zm1.926.372a.955.955 0 00.107 0 .693.693 0 00.177-.042l-.004.002.077-.033v-.306h-.231a.04.04 0 01-.028-.011.03.03 0 01-.011-.023v-.106h.442v.522a.803.803 0 01-.235.109l-.006.001a.84.84 0 01-.138.028h-.005a1.638 1.638 0 01-.164.009h-.008a.798.798 0 01-.286-.053l.005.002a.664.664 0 01-.374-.355l-.002-.004a.73.73 0 01-.053-.274v-.017a.78.78 0 01.053-.282l-.002.005a.633.633 0 01.375-.358.876.876 0 01.305-.051c.053 0 .106.004.158.012a.715.715 0 01.35.16l-.055.084a.052.052 0 01-.018.018.053.053 0 01-.026.007.066.066 0 01-.036-.011c-.022-.012-.041-.022-.058-.034l.003.002a.496.496 0 00-.073-.036l-.003-.001a.525.525 0 00-.101-.029l-.004-.001a.735.735 0 00-.137-.012h-.015a.623.623 0 00-.217.039l.004-.001a.459.459 0 00-.273.278.688.688 0 00.002.459l-.002-.005a.493.493 0 00.28.28.595.595 0 00.226.027zm1.816-.022h.622v.155h-.812V16.93h.195l-.005 1.207zm1.27.155h-.195v-1.362h.195v1.363zm.725-1.355a.088.088 0 01.029.025l.833 1.027-.001-.024.001-.026v.001-1.015h.17v1.368h-.105a.086.086 0 01-.036-.008h.001a.108.108 0 01-.03-.026l-.832-1.026v1.059h-.163v-1.362h.101c.011 0 .022.002.032.006zm2.467-.007v.15h-.691v.45h.56v.144h-.56v.465h.691v.15h-.891v-1.359h.891zm-20.42-8.414l8.652 2.326v8.15l-8.652-2.324V8.518zm-.554-.695v9.242l9.761 2.625v-9.241l-9.761-2.625z"/>
      <path d="M24.34 23.979l-9.762-2.627v-9.241l9.762 2.626v9.242z"/>
      <path d="M19.27 8.412l8.54 2.297-3.632 3.439-8.54-2.298 3.633-3.438zm-.161-.59l-4.531 4.289 9.762 2.626 4.529-4.289-9.761-2.626zm5.78 15.637l3.98-3.769-3.98-1.071v4.84z"/>
    </symbol>
  </defs>
</svg>
